

<svg xmlns="http://www.w3.org/2000/svg" xmlns:xlink="http://www.w3.org/1999/xlink" width="40" zoomAndPan="magnify" viewBox="0 0 30 30.000001" height="40" preserveAspectRatio="xMidYMid meet" version="1.0"><defs><clipPath id="5341d16a0f"><path d="M 1.257812 0.3125 L 28.839844 0.3125 L 28.839844 28.621094 L 1.257812 28.621094 Z M 1.257812 0.3125 " clip-rule="nonzero"/></clipPath><clipPath id="d6d559a543"><path d="M 10.628906 9.894531 L 13.28125 9.894531 L 13.28125 13.375 L 10.628906 13.375 Z M 10.628906 9.894531 " clip-rule="nonzero"/></clipPath><clipPath id="1a4a2b7054"><path d="M 12.675781 10.453125 C 12.894531 13.28125 12.242188 13.425781 11.878906 13.355469 C 11.589844 13.210938 11.152344 12.554688 11.152344 12.265625 C 11.296875 11.902344 12.316406 11.25 12.675781 11.394531 C 12.96875 11.46875 13.332031 12.195312 13.257812 12.484375 C 13.257812 12.773438 12.96875 13.210938 12.675781 13.28125 C 12.386719 13.425781 11.734375 13.28125 11.445312 12.992188 C 11.007812 12.703125 10.71875 11.832031 10.644531 11.324219 C 10.644531 10.816406 10.863281 10.089844 11.152344 9.945312 C 11.445312 9.796875 12.675781 10.453125 12.675781 10.453125 " clip-rule="nonzero"/></clipPath><clipPath id="ad9023547a"><path d="M 11.007812 9.3125 L 19.386719 9.3125 L 19.386719 12.050781 L 11.007812 12.050781 Z M 11.007812 9.3125 " clip-rule="nonzero"/></clipPath><clipPath id="2be93711fe"><path d="M 18.265625 12.046875 C 11.152344 10.960938 11.007812 10.304688 11.152344 10.015625 C 11.226562 9.726562 11.878906 9.433594 12.167969 9.507812 C 12.460938 9.652344 12.75 11.03125 12.53125 11.175781 C 12.316406 11.324219 11.082031 10.742188 11.007812 10.453125 C 11.007812 10.160156 11.515625 9.726562 12.023438 9.507812 C 13.183594 9.144531 17.324219 9.363281 18.410156 10.015625 C 18.992188 10.304688 19.355469 10.886719 19.355469 11.25 C 19.28125 11.539062 18.265625 12.046875 18.265625 12.046875 " clip-rule="nonzero"/></clipPath></defs><g clip-path="url(#5341d16a0f)"><path fill="#000000" d="M 20.019531 28.613281 L 25.785156 28.613281 C 27.445312 28.613281 28.804688 27.273438 28.804688 25.625 L 28.804688 11.5 C 28.804688 10.5625 28.351562 9.671875 27.597656 9.117188 L 16.855469 1.097656 C 15.789062 0.308594 14.308594 0.308594 13.242188 1.097656 L 2.5 9.109375 C 1.746094 9.671875 1.292969 10.5625 1.292969 11.5 L 1.292969 25.625 C 1.292969 27.273438 2.652344 28.613281 4.3125 28.613281 L 10.078125 28.613281 C 10.609375 28.613281 11.023438 28.203125 11.023438 27.675781 L 11.023438 22.316406 C 11.023438 20.113281 12.835938 18.324219 15.054688 18.324219 C 16.121094 18.324219 17.128906 18.746094 17.894531 19.496094 C 18.648438 20.246094 19.074219 21.246094 19.074219 22.316406 L 19.074219 27.675781 C 19.074219 28.203125 19.488281 28.613281 20.019531 28.613281 Z M 20.019531 28.613281 " fill-opacity="1" fill-rule="nonzero"/></g><g clip-path="url(#d6d559a543)"><g clip-path="url(#1a4a2b7054)"><path fill="#000000" d="M 7.742188 7.039062 L 16.234375 7.039062 L 16.234375 16.261719 L 7.742188 16.261719 Z M 7.742188 7.039062 " fill-opacity="1" fill-rule="nonzero"/></g></g><g clip-path="url(#ad9023547a)"><g clip-path="url(#2be93711fe)"><path fill="#000000" d="M 8.105469 6.605469 L 22.253906 6.605469 L 22.253906 14.953125 L 8.105469 14.953125 Z M 8.105469 6.605469 " fill-opacity="1" fill-rule="nonzero"/></g></g></svg>